<svg xmlns="http://www.w3.org/2000/svg" xmlns:xlink="http://www.w3.org/1999/xlink" width="170" height="28.864" viewBox="0 0 170 28.864">
  <defs>
    <clipPath id="clip-path">
      <rect id="Rectangle_1" data-name="Rectangle 1" width="170" height="28.864" transform="translate(0 0)" fill="none"/>
    </clipPath>
  </defs>
  <g id="Group_2" data-name="Group 2" transform="translate(0 0)">
    <g id="Group_1" data-name="Group 1" clip-path="url(#clip-path)">
      <path id="Path_1" data-name="Path 1" d="M151.268,28.864a9.181,9.181,0,0,1-4.715-1.226,8.463,8.463,0,0,1-3.3-3.614,13.039,13.039,0,0,1-1.205-5.92,13.373,13.373,0,0,1,.706-4.486,9.654,9.654,0,0,1,1.994-3.386,8.9,8.9,0,0,1,6.606-2.887,7.688,7.688,0,0,1,2.866.5,7.013,7.013,0,0,1,2.119,1.288,6.821,6.821,0,0,1,1.37,1.662c-.028-.305-.048-.609-.062-.914s-.02-.595-.02-.872v-1h4.36V28.157h-4.36V27.2c0-.333.006-.637.02-.914s.034-.582.062-.914a6.27,6.27,0,0,1-1.308,1.662,6.922,6.922,0,0,1-2.14,1.308,7.961,7.961,0,0,1-2.99.52m.955-3.407a4.881,4.881,0,0,0,2.929-.914,6.108,6.108,0,0,0,1.994-2.575,9.7,9.7,0,0,0,.726-3.905,8.167,8.167,0,0,0-1.6-5.3,5.172,5.172,0,0,0-7-1.059,6.194,6.194,0,0,0-2.035,2.555,9.091,9.091,0,0,0-.748,3.8,9.678,9.678,0,0,0,.727,3.905,5.953,5.953,0,0,0,2.036,2.575,5.053,5.053,0,0,0,2.97.914" fill="#141414"/>
      <path id="Path_2" data-name="Path 2" d="M115.391,28.864a9.181,9.181,0,0,1-4.715-1.226,8.463,8.463,0,0,1-3.3-3.614,13.052,13.052,0,0,1-1.205-5.92,13.373,13.373,0,0,1,.706-4.486,9.656,9.656,0,0,1,2-3.386,8.9,8.9,0,0,1,6.6-2.887,7.681,7.681,0,0,1,2.866.5,7.013,7.013,0,0,1,2.119,1.288,6.822,6.822,0,0,1,1.37,1.662c-.028-.305-.048-.609-.062-.914s-.02-.595-.02-.872v-1h4.361V28.157h-4.361V27.2c0-.333.006-.637.02-.914s.034-.582.062-.914a6.249,6.249,0,0,1-1.308,1.662,6.91,6.91,0,0,1-2.14,1.308,7.957,7.957,0,0,1-2.99.52m.955-3.407a4.877,4.877,0,0,0,2.929-.914,6.1,6.1,0,0,0,1.994-2.575A9.7,9.7,0,0,0,122,18.063a8.167,8.167,0,0,0-1.6-5.3,5.172,5.172,0,0,0-7-1.059,6.194,6.194,0,0,0-2.035,2.555,9.091,9.091,0,0,0-.748,3.8,9.678,9.678,0,0,0,.727,3.905,5.953,5.953,0,0,0,2.036,2.575,5.055,5.055,0,0,0,2.97.914" fill="#141414"/>
      <path id="Path_3" data-name="Path 3" d="M0,28.157V1.031H10.675a12.518,12.518,0,0,1,4.84.872,7.161,7.161,0,0,1,3.261,2.576,7.267,7.267,0,0,1,1.163,4.195,6.8,6.8,0,0,1-.81,3.365,7.513,7.513,0,0,1-2.056,2.389,8.469,8.469,0,0,1-2.617,1.35,5.724,5.724,0,0,1,2.637,1.1,5.552,5.552,0,0,1,1.7,2.265,8.451,8.451,0,0,1,.6,3.323v5.691H14.746V23.214a7.745,7.745,0,0,0-.54-3.2,3.208,3.208,0,0,0-1.745-1.662,8.38,8.38,0,0,0-3.157-.5H4.652v10.3ZM4.652,13.908H9.678a7.712,7.712,0,0,0,3.012-.519,3.9,3.9,0,0,0,1.848-1.516,4.545,4.545,0,0,0,.624-2.452,4.627,4.627,0,0,0-.624-2.492,3.79,3.79,0,0,0-1.848-1.5,8.022,8.022,0,0,0-3.012-.5H4.652Z" fill="#141414"/>
      <path id="Path_4" data-name="Path 4" d="M31.383,28.864a10.341,10.341,0,0,1-5.234-1.309,9.252,9.252,0,0,1-3.594-3.738A11.883,11.883,0,0,1,21.246,18.1,12.444,12.444,0,0,1,22,13.7a9.856,9.856,0,0,1,2.1-3.406,9.265,9.265,0,0,1,3.218-2.181,10.617,10.617,0,0,1,4.072-.769,10.3,10.3,0,0,1,5.276,1.329,9.283,9.283,0,0,1,3.573,3.76A11.955,11.955,0,0,1,41.519,18.1a12.053,12.053,0,0,1-1.287,5.712,9.133,9.133,0,0,1-3.573,3.738,10.431,10.431,0,0,1-5.276,1.309m0-3.407a5.007,5.007,0,0,0,3.012-.914,5.973,5.973,0,0,0,1.973-2.554,9.775,9.775,0,0,0,.706-3.884,9.893,9.893,0,0,0-.706-3.926,5.631,5.631,0,0,0-1.994-2.513,5.2,5.2,0,0,0-2.991-.873,5.1,5.1,0,0,0-2.97.873,5.814,5.814,0,0,0-2,2.513,9.659,9.659,0,0,0-.726,3.926,9.757,9.757,0,0,0,.706,3.884,5.958,5.958,0,0,0,1.973,2.554,5.005,5.005,0,0,0,3.012.914" fill="#141414"/>
      <path id="Path_5" data-name="Path 5" d="M53.569,28.864A10.616,10.616,0,0,1,48.335,27.6a8.893,8.893,0,0,1-3.573-3.677,12.288,12.288,0,0,1-1.288-5.857,11.826,11.826,0,0,1,.79-4.424,9.953,9.953,0,0,1,2.2-3.386,9.7,9.7,0,0,1,3.283-2.16,10.845,10.845,0,0,1,4.07-.748,9.977,9.977,0,0,1,4.633,1.018,8.225,8.225,0,0,1,3.136,2.763,8.59,8.59,0,0,1,1.37,4.07H58.513a5.169,5.169,0,0,0-1.35-3.115,4.374,4.374,0,0,0-3.386-1.288,5.445,5.445,0,0,0-2.347.5,5.245,5.245,0,0,0-1.849,1.475,7.176,7.176,0,0,0-1.225,2.306,9.568,9.568,0,0,0-.436,2.991,9.573,9.573,0,0,0,.726,3.863,6.053,6.053,0,0,0,2.057,2.6,5.143,5.143,0,0,0,3.033.934,4.759,4.759,0,0,0,3.551-1.287,5.266,5.266,0,0,0,1.475-3.241h4.362a9.288,9.288,0,0,1-1.413,4.155,7.839,7.839,0,0,1-3.2,2.782,11.159,11.159,0,0,1-4.944,1" fill="#141414"/>
      <path id="Path_6" data-name="Path 6" d="M84.413,28.158l-9.45-11.542L83.541,8.01H77.975L71.7,14.573c-.248.25-.5.52-.768.81s-.519.59-.768.894V1.031h-4.32V28.158h4.32v-6.73l1.908-1.914,6.649,8.644Z" fill="#141414"/>
      <path id="Path_7" data-name="Path 7" d="M93.136,28.864a9.174,9.174,0,0,1-4.715-1.226,8.461,8.461,0,0,1-3.3-3.614A13.05,13.05,0,0,1,83.914,18.1a13.375,13.375,0,0,1,.706-4.487,9.67,9.67,0,0,1,1.994-3.386,8.9,8.9,0,0,1,6.605-2.887,7.682,7.682,0,0,1,2.867.5,7.033,7.033,0,0,1,2.119,1.288,6.859,6.859,0,0,1,1.37,1.662c-.028-.3-.048-.609-.062-.914s-.02-.595-.02-.872V1.031h4.361V28.158H99.493v-1c0-.332.005-.636.02-.914s.034-.566.062-.872a6.515,6.515,0,0,1-1.309,1.62,7.175,7.175,0,0,1-2.139,1.329,7.683,7.683,0,0,1-2.991.541m.956-3.407a4.8,4.8,0,0,0,2.928-.934,6.428,6.428,0,0,0,2.016-2.576,9.31,9.31,0,0,0,.747-3.884,8.1,8.1,0,0,0-1.62-5.3,5.054,5.054,0,0,0-4.071-1.973,4.973,4.973,0,0,0-2.95.914,6.193,6.193,0,0,0-2.035,2.555,9.2,9.2,0,0,0-.748,3.843,9.556,9.556,0,0,0,.727,3.863,5.947,5.947,0,0,0,2.036,2.575,5.055,5.055,0,0,0,2.97.914" fill="#141414"/>
      <path id="Path_8" data-name="Path 8" d="M138.151,28.531a7.583,7.583,0,0,1-3.22-.644,4.63,4.63,0,0,1-2.16-2.056A7.508,7.508,0,0,1,132,22.217V11.5h-4.195V8.01H132V1.031h4.321V8.01h4.57V11.5h-4.57V21.636a3.454,3.454,0,0,0,.748,2.45,2.885,2.885,0,0,0,2.2.789,6.683,6.683,0,0,0,.748-.041c.249-.027.512-.055.789-.082V28.2a10.8,10.8,0,0,1-2.658.332" fill="#141414"/>
      <path id="Path_9" data-name="Path 9" d="M170,0l-1.046,8.015-4.99-1.979-1.979-4.99Z" fill="#141414"/>
    </g>
  </g>
</svg>
